<svg width="32" height="32" viewBox="0 0 32 32" fill="none" xmlns="http://www.w3.org/2000/svg">
  <rect width="32" height="32" rx="8" fill="#080025"/>
  <g transform="translate(5, 3.5) scale(0.39)">
    <path d="M0.647737 120.459C10.9632 120.063 16.1089 119.86 26.4244 119.464C28.2596 119.393 29.4231 118.338 29.4111 116.613C29.4111 115.631 29.0033 115.044 28.3436 114.469C20.559 107.281 16.6247 104.094 8.78016 97.7447C3.31057 93.2522 0.0240108 88.7238 2.13557e-05 82.0749C-0.0479576 68.3099 11.9468 56.4258 28.0557 54.0897C38.1792 52.6281 43.241 51.8973 53.3646 50.4358C53.1367 62.0564 53.1487 66.9682 53.2086 76.3365C44.0327 77.3308 39.4507 77.822 30.2747 78.8164C28.5715 78.9961 27.396 80.254 27.42 81.8473C27.42 82.8297 27.8278 83.6323 28.7634 84.3871C36.512 91.024 40.4103 94.1747 48.1828 100.979C53.9043 105.987 56.1354 111.33 56.2673 117.907C56.5312 131.6 45.652 144.61 28.3796 144.407C17.2364 144.431 11.6709 144.443 0.527789 144.467C0.743695 133.589 0.7317 129.048 0.647737 120.447V120.459Z" fill="white"/>
  </g>
</svg>
